<?xml version="1.0" encoding="UTF-8"?><svg id="a" xmlns="http://www.w3.org/2000/svg" xmlns:xlink="http://www.w3.org/1999/xlink" viewBox="0 0 800 800"><defs><style>.q,.r,.s{fill:#fff;}.t{clip-path:url(#l);}.u{fill:#ff9236;}.v{fill:#000063;}.w{clip-path:url(#h);}.x{fill:#ed8232;}.y{fill:#dd436b;}.a`{clip-path:url(#n);}.aa{fill:#e24b73;}.ab{clip-path:url(#o);}.ac{clip-path:url(#m);}.ad{clip-path:url(#b);}.ae{fill:#eaeaea;}.af{clip-path:url(#c);}.ag{fill:#f9537f;}.ah{clip-path:url(#e);}.r{opacity:.44;}.ai{clip-path:url(#d);}.s{opacity:.82;}.aj{clip-path:url(#p);}.ak{fill:#fb6d7b;}.al{clip-path:url(#f);}.am{clip-path:url(#j);}.an{fill:#e88831;}.ao{fill:#fb9530;}.ap{clip-path:url(#i);}.aq{clip-path:url(#k);}.ar{clip-path:url(#g);}</style><clipPath id="b"><polygon class="u" points="397.16 637.81 413.33 715.48 443.71 715.77 449.32 621.08 397.16 637.81"/></clipPath><clipPath id="c"><path class="u" d="M427.49,731.92l56.98,.28s9.07-5.67,9.07-13.32-13.04-19.28-26.08-18.99c-13.04,.28-32.32,5.39-39.4,16.16s-.57,15.88-.57,15.88Z"/></clipPath><clipPath id="d"><path class="u" d="M398.57,733.06l56.98,.28s9.07-5.67,9.07-13.32-13.04-19.28-26.08-18.99c-13.04,.28-32.32,5.39-39.4,16.16-7.09,10.77-.57,15.88-.57,15.88Z"/></clipPath><clipPath id="e"><polygon class="u" points="299.36 641.78 313.25 719.45 339.33 719.73 344.15 625.05 299.36 641.78"/></clipPath><clipPath id="f"><path class="u" d="M302.76,737.03s16.16-.28,20.69-5.39c4.54-5.1-2.27-26.65-9.07-32.03-6.8-5.39-24.95-3.69-29.2,7.94-4.25,11.62-4.82,18.99-1.98,23.53,2.83,4.54,19.56,5.95,19.56,5.95Z"/></clipPath><clipPath id="g"><path class="u" d="M341.88,736.18s16.16-.28,20.69-5.39c4.54-5.1-2.27-26.65-9.07-32.03s-24.95-3.69-29.2,7.94c-4.25,11.62-4.82,18.99-1.98,23.53,2.83,4.54,19.56,5.95,19.56,5.95Z"/></clipPath><clipPath id="h"><path class="ag" d="M301.91,231.01c-6.38-3.83-49.75-16.16-56.56-49.75-6.8-33.59,20.84-44.51,28.49-46.63,7.65-2.13,38.7,5.39,38.7,5.39,0,0-19.77-25.09-13.61-52.3s33.81-29.77,38.48-29.77,67.82,14.17,90.36,57.12c22.54,42.95,13.89,121.05,13.89,121.05l-139.76-5.1Z"/></clipPath><clipPath id="i"><path class="q" d="M570.65,362.4s48.05-93.55,53.58-93.12c5.53,.43,17.01,8.5,20.41,26.79,3.4,18.28-4.25,66.34-4.25,66.34,0,0,14.46,52.3,11.91,71.44-2.55,19.14-22.96,68.89-35.29,80.79-12.33,11.91-55.28,39.97-63.36,39.97s-51.45-137.77-51.45-137.77l68.46-54.43Z"/></clipPath><clipPath id="j"><path class="q" d="M668.88,377.29c-2.13-21.69-16.58-43.8-25.94-45.07s-30.62,11.91-36.57,24.24c-5.95,12.33-1.28,21.69,.85,25.94,2.13,4.25,18.71,10.63,18.71,10.63,0,0-15.31,7.65-10.21,19.14,5.1,11.48,15.06,19.13,27.21,16.16,18-4.4,28.78-17.07,27.92-30.26-.85-13.18-1.99-20.77-1.99-20.77Z"/></clipPath><clipPath id="k"><path class="q" d="M367.67,174.31c-33.04-1.17-115.66,21.54-146.28,122.47-30.62,100.92-15.88,137.21-15.88,137.21l-38.55,70.3,38.55,27.21,22.68,62.37s47.63,43.09,148.55,45.36c100.92,2.27,165.55-43.09,180.3-79.38,14.74-36.29,48.76-109.99,11.34-226.79-37.42-116.8-104.32-155.35-200.71-158.75Z"/></clipPath><clipPath id="l"><path class="q" d="M330.73,457.65s-6.24-31.88-46.43-38.81c-40.2-6.93-92.18,47.13-108.81,51.98-16.63,4.85-48.51,21.48-50.59,32.57-2.08,11.09,7.62,27.03,17.33,32.57,9.7,5.54,29.8,5.54,29.8,5.54,0,0-18.71,15.25-17.33,29.8,1.39,14.55,31.88,44.36,69.31,45.74,37.42,1.39,107.42-20.1,117.82-67.23,10.4-47.13-11.09-92.18-11.09-92.18Z"/></clipPath><clipPath id="m"><path class="ag" d="M446.32,394.57c.75,13.19-9.33,24.49-22.52,25.24-13.19,.75-24.49-9.33-25.24-22.52-.75-13.19,21.24-47.67,21.24-47.67,0,0,25.77,31.76,26.52,44.95Z"/></clipPath><clipPath id="n"><path class="ag" d="M474.02,383.53c4.55,10.56-.32,22.81-10.88,27.35-10.56,4.55-22.81-.32-27.35-10.88-4.55-10.56,3.94-43.48,3.94-43.48,0,0,29.75,16.44,34.3,27Z"/></clipPath><clipPath id="o"><path class="ao" d="M411.3,349.86s26.05,23.17,36.14,22.86c10.1-.32,20.62-1.81,20.41-12.01-.21-10.21-13.39-22.75-13.39-22.75l-43.16,11.91Z"/></clipPath><clipPath id="p"><path class="ao" d="M413.53,342.74l61.87-.64s5.74-1.91,5.74-8.19-.21-33.38-33.17-34.12c-32.96-.74-35.29,34.66-35.29,34.66,0,0-.43,5.95,.85,8.29Z"/></clipPath></defs><g><g><g><polygon class="u" points="397.16 637.81 413.33 715.48 443.71 715.77 449.32 621.08 397.16 637.81"/><g class="ad"><path class="x" d="M453.71,669.91s-29.77,12.12-34.23,22.11c-4.46,9.99-18.71,43.16-18.71,43.16l-13.39-94.83,59.74-13.39,21.9,42.52-15.31,.43Z"/></g></g><polygon class="v" points="406.7 702.6 392.66 635.18 453.52 615.66 448.73 696.42 441 695.96 445.12 626.5 401.66 640.43 414.28 701.02 406.7 702.6"/></g><g><g><path class="u" d="M427.49,731.92l56.98,.28s9.07-5.67,9.07-13.32-13.04-19.28-26.08-18.99c-13.04,.28-32.32,5.39-39.4,16.16s-.57,15.88-.57,15.88Z"/><g class="af"><path class="x" d="M420.12,714.91s19.84,10.21,35.72,9.35,59.25-12.19,59.25-12.19c0,0-4.82,45.92-5.67,45.64s-107.44-5.67-107.44-6.52,18.14-36.29,18.14-36.29Z"/></g></g><path class="v" d="M467.93,699.88c12.88,0,25.61,11.44,25.61,19s-9.07,13.32-9.07,13.32l-56.98-.28s-6.52-5.1,.57-15.88c7.09-10.77,26.36-15.88,39.4-16.16,.16,0,.31,0,.47,0m0-7.75h-.64c-16.02,.36-37.16,6.65-45.71,19.65-8.71,13.24-3.07,22.95,1.13,26.24l2.09,1.63h2.65l56.98,.3h2.24l1.9-1.18c1.3-.81,12.71-8.28,12.71-19.89,0-13-17.15-26.75-33.36-26.75h0Z"/></g><g><g><path class="u" d="M398.57,733.06l56.98,.28s9.07-5.67,9.07-13.32-13.04-19.28-26.08-18.99c-13.04,.28-32.32,5.39-39.4,16.16-7.09,10.77-.57,15.88-.57,15.88Z"/><g class="ai"><path class="x" d="M389.79,716.62s22.11,11.06,39.4,11.06,53.01-18.14,53.01-18.14c0,0,6.52,42.24,5.39,42.24s-84.48,3.12-84.48,3.12c0,0-43.09-10.77-41.96-11.91s28.63-26.36,28.63-26.36Z"/></g></g><path class="v" d="M439.02,701.02c12.88,0,25.61,11.44,25.61,19s-9.07,13.32-9.07,13.32l-56.98-.28s-6.52-5.1,.57-15.88c7.09-10.77,26.36-15.88,39.4-16.16,.16,0,.31,0,.47,0m0-7.75h-.64c-16.02,.36-37.16,6.65-45.71,19.65-8.71,13.24-3.07,22.95,1.13,26.24l2.09,1.63h2.65l56.98,.3h2.24l1.9-1.18c1.3-.81,12.71-8.28,12.71-19.89,0-13-17.15-26.75-33.36-26.75h0Z"/></g></g><g><g><g><polygon class="u" points="299.36 641.78 313.25 719.45 339.33 719.73 344.15 625.05 299.36 641.78"/><g class="ah"><path class="x" d="M299.78,683.24s16.37-12.12,24.03-7.23c7.65,4.89,43.8,14.88,43.37,10.84s-19.14-82.49-20.2-82.49-63.15,14.25-63.15,14.25l15.95,64.63Z"/></g></g><polygon class="v" points="304.72 693.8 294.97 639.28 348.32 619.36 344.68 690.72 336.94 690.33 339.98 630.74 303.74 644.28 312.35 692.43 304.72 693.8"/></g><g><g><path class="u" d="M302.76,737.03s16.16-.28,20.69-5.39c4.54-5.1-2.27-26.65-9.07-32.03-6.8-5.39-24.95-3.69-29.2,7.94-4.25,11.62-4.82,18.99-1.98,23.53,2.83,4.54,19.56,5.95,19.56,5.95Z"/><g class="al"><path class="x" d="M271.93,715.98s19.14,11.91,29.77,11.48c10.63-.43,34.44-14.67,34.44-14.67l6.38,45.07-77.6-5.1,7.02-36.78Z"/></g></g><path class="v" d="M303.98,696.68c4.14,0,7.98,1.02,10.4,2.93,6.8,5.39,13.61,26.93,9.07,32.03-4.54,5.1-20.69,5.39-20.69,5.39,0,0-16.73-1.42-19.56-5.95-2.84-4.54-2.27-11.91,1.98-23.53,2.74-7.5,11.27-10.87,18.8-10.87m0-7.75c-9.34,0-21.77,4.18-26.08,15.95-5.16,14.11-5.56,23.45-1.28,30.3,4.04,6.47,16.08,8.77,25.48,9.57l.39,.03h.4c5.88-.11,20.22-1.09,26.35-7.99,2.71-3.04,3.82-7.59,3.3-13.5-.87-9.95-6.44-24.28-13.35-29.75-3.75-2.97-9.15-4.6-15.21-4.6h0Z"/></g><g><g><path class="u" d="M341.88,736.18s16.16-.28,20.69-5.39c4.54-5.1-2.27-26.65-9.07-32.03s-24.95-3.69-29.2,7.94c-4.25,11.62-4.82,18.99-1.98,23.53,2.83,4.54,19.56,5.95,19.56,5.95Z"/><g class="ar"><path class="x" d="M315.94,718.1s17.22,9.14,25.3,8.5c8.08-.64,37.85-12.97,37.85-12.97l-1.28,35.51-61.45,7.02-9.99-35.08,9.57-2.98Z"/></g></g><path class="v" d="M343.1,695.83c4.14,0,7.98,1.02,10.4,2.93,6.8,5.39,13.61,26.93,9.07,32.03s-20.69,5.39-20.69,5.39c0,0-16.73-1.42-19.56-5.95-2.83-4.54-2.27-11.91,1.98-23.53,2.74-7.5,11.27-10.87,18.8-10.87m0-7.75c-9.34,0-21.77,4.18-26.08,15.95-5.16,14.11-5.56,23.45-1.28,30.3,4.04,6.47,16.08,8.77,25.48,9.57l.39,.03h.4c5.88-.11,20.22-1.09,26.35-7.99,2.71-3.05,3.82-7.59,3.3-13.5-.87-9.95-6.44-24.28-13.35-29.75-3.75-2.97-9.15-4.6-15.21-4.6h0Z"/></g></g><g><path class="q" d="M354.63,628.17c0,18.08-14.66,44.65-32.74,44.65s-32.74-26.57-32.74-44.65,14.66-32.74,32.74-32.74,32.74,14.66,32.74,32.74Z"/><path class="v" d="M321.89,676.69c-20.89,0-36.62-29.44-36.62-48.52,0-20.19,16.43-36.62,36.62-36.62s36.62,16.43,36.62,36.62c0,19.09-15.72,48.52-36.62,48.52Zm0-77.39c-15.92,0-28.87,12.95-28.87,28.87s13.21,40.77,28.87,40.77,28.87-25.05,28.87-40.77-12.95-28.87-28.87-28.87Z"/></g><g><path class="q" d="M453.71,625.62c0,18.08-14.66,44.65-32.74,44.65s-32.74-26.57-32.74-44.65,14.66-32.74,32.74-32.74,32.74,14.66,32.74,32.74Z"/><path class="v" d="M420.97,674.14c-20.89,0-36.61-29.44-36.61-48.52,0-20.19,16.42-36.62,36.61-36.62s36.62,16.43,36.62,36.62c0,19.09-15.72,48.52-36.62,48.52Zm0-77.39c-15.91,0-28.86,12.95-28.86,28.87s13.21,40.77,28.86,40.77,28.87-25.05,28.87-40.77-12.95-28.87-28.87-28.87Z"/></g><g><path class="ag" d="M301.91,231.01c-6.38-3.83-49.75-16.16-56.56-49.75-6.8-33.59,20.84-44.51,28.49-46.63,7.65-2.13,38.7,5.39,38.7,5.39,0,0-19.77-25.09-13.61-52.3s33.81-29.77,38.48-29.77,67.82,14.17,90.36,57.12c22.54,42.95,13.89,121.05,13.89,121.05l-139.76-5.1Z"/><g class="w"><path class="aa" d="M301.8,71.65s11.27,36.57,27.64,52.94c16.37,16.37,30.83,63.36,30.83,63.36,0,0-19.77,7.87-19.77,7.23s-6.8-35.08-14.88-42.74-34.02-23.17-34.02-23.17l-72.08,6.17,4.68,44.22s16.58-12.54,30.4-3.61c13.82,8.93,31.04,50.18,31.04,50.18l-49.33,11.91-23.81-89.94,17.22-41.67,45.29-30.62,26.79-4.25Z"/></g></g><path class="v" d="M338.01,62.97c33.46,0,79.15,36.86,88.06,56.91,11.34,25.51,19.84,102.05,19.84,102.05l-151.38,8.5s-64.63-35.15-41.96-74.27c8.37-14.43,20.13-18.99,31.65-18.99,19.69,0,38.66,13.32,38.66,13.32,0,0-37.99-47.63-8.5-78.24,6.31-6.55,14.52-9.29,23.63-9.29m0-7.75h0c-11.94,0-21.77,3.92-29.22,11.66-19.98,20.75-14.14,47.11-5.67,65.65-5.83-1.81-12.3-3.1-18.9-3.1-16.42,0-29.68,7.9-38.35,22.85-5.98,10.31-7.41,21.25-4.25,32.5,8.42,29.98,47.55,51.56,49.21,52.46l1.94,1.05,2.2-.12,151.38-8.5,8.17-.46-.9-8.13c-.35-3.17-8.77-78.04-20.46-104.35-10.3-23.18-59.03-61.52-95.14-61.52h0Z"/><g><g><path class="q" d="M570.65,362.4s48.05-93.55,53.58-93.12c5.53,.43,17.01,8.5,20.41,26.79,3.4,18.28-4.25,66.34-4.25,66.34,0,0,14.46,52.3,11.91,71.44-2.55,19.14-22.96,68.89-35.29,80.79-12.33,11.91-55.28,39.97-63.36,39.97s-51.45-137.77-51.45-137.77l68.46-54.43Z"/><g class="ap"><path class="ae" d="M601.27,258.22s-23.51,122.33-7.65,142.03c28.06,34.87,29.77,64.63,22.96,83.34-6.8,18.71-75.69,65.48-75.69,65.48l22.96,66.34,170.94-125.87-59.53-146.28,9.35-91-83.34,5.95Z"/></g></g><path class="v" d="M624.19,269.28h.04c5.53,.43,17.01,8.51,20.41,26.79,3.4,18.28-4.25,66.34-4.25,66.34,0,0,14.46,52.3,11.91,71.44-2.55,19.14-22.96,68.89-35.29,80.79s-55.28,39.97-63.36,39.97-51.45-137.77-51.45-137.77l68.46-54.43s47.83-93.12,53.54-93.13m0-7.75h-.01c-5.34,0-10.38,.02-59.66,95.85l-67.15,53.39-4.17,3.31,1.6,5.08c45.08,143.19,52.39,143.19,58.84,143.19,12.05,0,57.81-31.6,68.74-42.15,14.15-13.66,34.98-65.77,37.59-85.34,2.51-18.8-8.92-62.73-11.68-72.9,1.48-9.65,7.25-49.62,3.96-67.31-4.03-21.68-18.47-32.41-27.43-33.1l-.3-.02h-.34Z"/></g><g><g><path class="q" d="M668.88,377.29c-2.13-21.69-16.58-43.8-25.94-45.07s-30.62,11.91-36.57,24.24c-5.95,12.33-1.28,21.69,.85,25.94,2.13,4.25,18.71,10.63,18.71,10.63,0,0-15.31,7.65-10.21,19.14,5.1,11.48,15.06,19.13,27.21,16.16,18-4.4,28.78-17.07,27.92-30.26-.85-13.18-1.99-20.77-1.99-20.77Z"/><g class="am"><path class="ae" d="M623.94,322.57s-14.46,40.82-9.64,48.48c4.82,7.65,24.66,18.99,24.66,18.99,0,0-21.83,10.77-16.16,20.69,5.67,9.92,53.58,22.11,53.58,22.11l-82.78,23.53s-19.28-92.42-18.99-93.27,21.83-58.4,21.83-58.4l27.5,17.86Z"/></g></g><path class="v" d="M641.6,332.13c.47,0,.92,.03,1.34,.09,9.35,1.28,23.81,23.39,25.94,45.07,0,0,1.14,7.59,1.99,20.77,.85,13.18-9.93,25.85-27.92,30.26-1.79,.44-3.52,.64-5.2,.64-9.77,0-17.66-7.01-22.01-16.8-5.1-11.48,10.21-19.14,10.21-19.14,0,0-16.58-6.38-18.71-10.63-2.13-4.25-6.8-13.61-.85-25.94,5.68-11.77,25.32-24.32,35.23-24.32m0-7.75c-13.51,0-35.6,15.02-42.21,28.7-7.61,15.76-1.43,28.12,.9,32.77,1.49,2.97,5.22,6.05,11.15,9.18-4.29,5.63-6.14,12.74-2.79,20.26,5.96,13.4,16.83,21.4,29.09,21.4,2.32,0,4.7-.29,7.04-.87,21.03-5.14,34.94-20.89,33.82-38.28-.8-12.33-1.83-19.88-2.03-21.22-2.21-21.8-17.19-49.71-32.58-51.81-.75-.1-1.55-.16-2.39-.16h0Z"/></g><g><g><path class="q" d="M367.67,174.31c-33.04-1.17-115.66,21.54-146.28,122.47-30.62,100.92-15.88,137.21-15.88,137.21l-38.55,70.3,38.55,27.21,22.68,62.37s47.63,43.09,148.55,45.36c100.92,2.27,165.55-43.09,180.3-79.38,14.74-36.29,48.76-109.99,11.34-226.79-37.42-116.8-104.32-155.35-200.71-158.75Z"/><g class="aq"><path class="ae" d="M225.37,229.31c40.25,130.97-16.16,216.87,47.63,273,17.86,15.71,36.56-33.91,65.48-19.99,11.48,5.53,10.34,62.79,23.39,76.54,23.81,25.09,153.51,41.25,153.51,41.25l6.8,85.9S-16.16,731.07-14.46,728.52c1.7-2.55,73.99-457.54,73.99-460.95s153.34-78.94,165.84-38.27Z"/></g></g><path class="v" d="M383.78,643.18c-2.36,0-4.73-.03-7.12-.08-101.18-2.27-140.62-36.38-142.25-37.83l5.15-5.79c.38,.34,39.3,33.68,137.28,35.87,104.93,2.43,164.03-45.95,176.62-76.96l1.96-4.79c15.62-38.03,44.7-108.82,9.27-219.36-33.86-105.71-92.82-152.38-197.15-156.06-29.25-1.01-111.72,18.46-142.43,119.72-29.67,97.79-16.13,134.29-15.99,134.64l.7,1.79-1,1.66-26.36,43.09-6.61-4.04,25.42-41.55c-2.63-8.86-10.76-48.25,16.41-137.84,32.14-105.93,119.3-126.32,150.12-125.21,108.14,3.81,169.23,52.09,204.26,161.44,36.28,113.23,6.51,185.72-9.49,224.67l-1.95,4.76c-16.35,40.26-83.52,81.87-176.85,81.87Z"/></g><g><g><path class="q" d="M330.73,457.65s-6.24-31.88-46.43-38.81c-40.2-6.93-92.18,47.13-108.81,51.98-16.63,4.85-48.51,21.48-50.59,32.57-2.08,11.09,7.62,27.03,17.33,32.57,9.7,5.54,29.8,5.54,29.8,5.54,0,0-18.71,15.25-17.33,29.8,1.39,14.55,31.88,44.36,69.31,45.74,37.42,1.39,107.42-20.1,117.82-67.23,10.4-47.13-11.09-92.18-11.09-92.18Z"/><g class="t"><path class="ae" d="M202.9,444.4s-48.29,44.93-45.36,61.23c2.76,15.38,26.65,17.58,36.29,20.41,9.64,2.83,11.71,11.72,9.64,15.88-3.47,6.95-22.68,17.01-19.28,24.38,3.4,7.37,27.3,21.96,64.07,24.95,35.79,2.91,87.88,0,87.88,0l-42.52,57.26-123.6,5.1s-62.37-96.38-61.8-98.65c.57-2.27,12.47-77.67,12.47-77.67l82.21-32.88Z"/></g></g><path class="v" d="M320.61,438.35c-41.22-42.99-92.09-1.6-128.71,26.15-14.25,11.18-34.27,14.56-49.17,25.46-9.77,6.74-18.83,12.3-12.65,25.57,4.4,10.52,12.24,19.06,24.24,20.57,8.6,1.74,18.83,1.65,27.63,1.73l-7.55,6.59c-8.35,7.86-19.99,19.51-14.24,31.72,13.04,22.68,41.49,37.68,67.8,37.48,39.59-1.7,86.76-15.45,107.42-52.01,11.82-25.24,9.18-55.74,3.01-82.46,12.98,40.21,12.48,92.37-28.58,116.02-35.87,22.26-85.03,36-124.23,14.47-14.78-8.99-35.01-22.53-34.59-42.56,1.74-11.93,10.09-20.93,18.64-28.51l2.38,6.7c-6.48-.13-12.72-.68-19.11-1.92-18.82-2.31-36.52-25.14-30.29-43.8,7.84-12.17,20.9-18.01,33.04-24.36,11.1-5.51,22.87-7.25,33.02-15.32,38.06-27.34,91.35-67.94,131.94-21.52h0Z"/></g><g><path class="v" d="M390.5,324.7c5.53,22.52-9.37,46.92-28.63,46.92s-37.4-16.32-40.68-35.29c-3.4-19.7,11.36-45.36,30.62-45.36s32.88,10.06,38.7,33.73Z"/><path class="s" d="M377.28,320.62c0,7.28-4.73,14.35-12.01,14.35s-14.35-7.07-14.35-14.35,3.99-14.03,11.27-14.03,15.1,6.75,15.1,14.03Z"/><path class="r" d="M361.6,356.58c-2.62,2.62-8.13,1.32-10.62-1.17-2.49-2.49-4-8.38-1.39-10.99,2.62-2.62,8.66-1.16,11.15,1.33,2.49,2.49,3.47,8.22,.85,10.83Z"/></g><g><path class="v" d="M539.02,296.1c5.02,20.46-8.52,42.63-26.02,42.63s-33.99-14.83-36.96-32.07c-3.09-17.9,10.32-41.21,27.82-41.21s29.88,9.14,35.16,30.65Z"/><path class="s" d="M527.35,291.72c0,6.56-4.26,12.92-10.82,12.92s-12.92-6.37-12.92-12.92,3.59-12.64,10.15-12.64,13.59,6.08,13.59,12.64Z"/><path class="r" d="M513.63,325.58c-2.62,2.62-8.13,1.32-10.62-1.17s-4-8.38-1.39-10.99c2.62-2.62,8.66-1.16,11.15,1.33,2.49,2.49,3.47,8.22,.85,10.83Z"/></g><g><path class="ae" d="M418.42,351.35s-29.2,31.82-26.36,46.56c2.83,14.74,7.37,22.04,17.86,23.17,10.49,1.13,24.88,.28,28.56-3.12s12.47,1.7,18.99-.85c6.52-2.55,18.99-14.17,18.99-21.54s-22.4-38.84-22.4-38.84l-35.65-5.39Z"/><g><path class="ag" d="M446.32,394.57c.75,13.19-9.33,24.49-22.52,25.24-13.19,.75-24.49-9.33-25.24-22.52-.75-13.19,21.24-47.67,21.24-47.67,0,0,25.77,31.76,26.52,44.95Z"/><g class="ac"><path class="y" d="M422.67,420.66s-14.35-12.44-15.1-26.26c-.45-8.33,15.37-36.54,15.37-36.54,0,0-25.38-12-25.9-10.99s-35.22,73.37-35.22,73.37l62.54,26.51-1.69-26.09Z"/></g></g><g><path class="ag" d="M474.02,383.53c4.55,10.56-.32,22.81-10.88,27.35-10.56,4.55-22.81-.32-27.35-10.88-4.55-10.56,3.94-43.48,3.94-43.48,0,0,29.75,16.44,34.3,27Z"/><g class="a`"><path class="y" d="M459.56,355.17s-14.46,26.47-14.99,35.29c-.58,9.59,18.28,30.4,18.28,30.4,0,0-38.48-3.3-38.16-5.53s6.06-60.7,6.06-60.7l28.81,.53Z"/></g></g></g><g><g><path class="ao" d="M411.3,349.86s26.05,23.17,36.14,22.86c10.1-.32,20.62-1.81,20.41-12.01-.21-10.21-13.39-22.75-13.39-22.75l-43.16,11.91Z"/><g class="ab"><path class="an" d="M419.16,366.44s2.34-8.72,15.84-13.08,34.97-2.55,34.97-2.55c0,0-13.71-23.6-16.16-24.13-2.45-.53-58.47,14.88-58.47,14.88l23.81,24.88Z"/></g></g><path class="v" d="M454.46,337.95s13.18,12.54,13.39,22.75c.21,10.21-10.31,11.69-20.41,12.01-.07,0-.14,0-.21,0-10.24,0-35.93-22.86-35.93-22.86l43.16-11.91m0-7.75c-.69,0-1.38,.09-2.06,.28l-43.16,11.91c-2.74,.76-4.84,2.95-5.49,5.71s.27,5.66,2.4,7.55c8.39,7.46,29.18,24.82,41.09,24.82,.08,0,.37,0,.45,0,7-.22,28.31-.89,27.91-19.92-.27-12.78-13.21-25.73-15.8-28.2-1.46-1.39-3.38-2.14-5.34-2.14h0Z"/></g><g><path class="ak" d="M428.84,345.61s11.91,12.76,23.39,10.31c11.48-2.45,3.51-11.69,3.51-11.69l-26.9,1.38Z"/><path class="v" d="M455.73,344.22s7.97,9.25-3.51,11.69c-1,.21-2.01,.31-3.01,.31-10.46,0-20.37-10.62-20.37-10.62l26.9-1.38m0-7.75c-.13,0-.27,0-.4,.01l-26.9,1.38c-3.01,.15-5.66,2.04-6.79,4.83-1.13,2.79-.54,5.99,1.52,8.19,1.25,1.34,12.6,13.08,26.04,13.08,1.57,0,3.13-.16,4.63-.48,7.69-1.64,10.61-5.85,11.7-9.09,2.46-7.31-2.85-13.98-3.94-15.24-1.48-1.71-3.62-2.69-5.87-2.69h0Z"/></g><g><g><path class="ao" d="M413.53,342.74l61.87-.64s5.74-1.91,5.74-8.19-.21-33.38-33.17-34.12c-32.96-.74-35.29,34.66-35.29,34.66,0,0-.43,5.95,.85,8.29Z"/><g class="aj"><path class="an" d="M439.89,299.68s-14.88,16.16-14.88,25.94,2.55,33.59,2.55,33.59c0,0-31.04-22.75-30.83-24.03s12.33-34.02,13.39-36.14c1.06-2.13,28.06-15.52,28.06-15.52l1.7,16.16Z"/></g></g><path class="v" d="M446.95,299.78c.34,0,.68,0,1.02,.01,32.96,.74,33.17,27.85,33.17,34.12s-5.74,8.19-5.74,8.19l-61.87,.64c-1.28-2.34-.85-8.29-.85-8.29,0,0,2.29-34.67,34.28-34.67m0-7.75c-31.04,0-41.05,27.41-42.01,41.91-.22,3.03-.28,8.74,1.78,12.51,1.36,2.49,3.97,4.04,6.8,4.04,.03,0,.05,0,.08,0l61.87-.64c.81,0,1.61-.14,2.37-.4,4.1-1.37,11.04-6.18,11.04-15.54,0-26.02-14.85-41.29-40.74-41.87h-1.19Z"/></g></svg>