<?xml version="1.0" encoding="utf-8"?>
<!-- Generator: Adobe Illustrator 26.1.0, SVG Export Plug-In . SVG Version: 6.00 Build 0)  -->
<svg version="1.1" id="a" xmlns="http://www.w3.org/2000/svg" xmlns:xlink="http://www.w3.org/1999/xlink" x="0px" y="0px"
	 viewBox="0 0 800 800" style="enable-background:new 0 0 800 800;" xml:space="preserve">
<style type="text/css">
	.st0{fill:#FF9236;}
	.st1{clip-path:url(#SVGID_00000131362308067790072630000004918533888105058734_);}
	.st2{fill:#ED8232;}
	.st3{fill:#000063;}
	.st4{clip-path:url(#SVGID_00000161623487629217413290000000362704405297366673_);}
	.st5{clip-path:url(#SVGID_00000088838833550075802490000000692950365485776266_);}
	.st6{fill:#EE3939;}
	.st7{fill:#9E1212;}
	.st8{fill:#FFCC3D;}
	.st9{clip-path:url(#SVGID_00000066479610419848207630000018055250651926849466_);}
	.st10{clip-path:url(#SVGID_00000083779907259874939320000009398023989326443671_);}
	.st11{clip-path:url(#SVGID_00000130621973707961974770000011663937762856330389_);}
	.st12{fill:#FFFFFF;}
	.st13{clip-path:url(#SVGID_00000119830184139451773170000006857880054141465749_);}
	.st14{fill:#EAEAEA;}
	.st15{clip-path:url(#SVGID_00000183244097693563174960000018390923152640282805_);}
	.st16{fill:#FE4968;}
	.st17{clip-path:url(#SVGID_00000064337897796867526560000010990958610037495192_);}
	.st18{fill:#EA4B6D;}
	.st19{clip-path:url(#SVGID_00000113354349522028597660000005366238695924206224_);}
	.st20{clip-path:url(#SVGID_00000081624693402268087190000015071595998825310894_);}
	.st21{clip-path:url(#SVGID_00000040576329962273378710000018245000788773625997_);}
	.st22{clip-path:url(#SVGID_00000099643714678325989690000011581500417047076999_);}
	.st23{fill:#DD436B;}
	.st24{clip-path:url(#SVGID_00000099623672293164030460000015990594358743574705_);}
	.st25{opacity:0.42;fill:#FFFFFF;enable-background:new    ;}
	.st26{opacity:0.44;fill:#FFFFFF;enable-background:new    ;}
	.st27{clip-path:url(#SVGID_00000075875565827386553720000000641886845572016277_);}
	.st28{fill:#BC3C64;}
	.st29{fill:#FB9530;}
	.st30{clip-path:url(#SVGID_00000128469982246837718110000018073460167033050039_);}
	.st31{fill:#E88831;}
	.st32{fill:#AA1B47;}
	.st33{clip-path:url(#SVGID_00000097469842624447463460000009379884782238486691_);}
</style>
<g>
	<g>
		<g>
			<polygon class="st0" points="251.8,499.6 193.8,574.3 216.8,594 279.9,546.4 			"/>
			<g>
				<defs>
					<polygon id="SVGID_1_" points="251.8,499.6 193.8,574.3 216.8,594 279.9,546.4 					"/>
				</defs>
				<clipPath id="SVGID_00000058590436903193904690000004151650618632542892_">
					<use xlink:href="#SVGID_1_"  style="overflow:visible;"/>
				</clipPath>
				<g style="clip-path:url(#SVGID_00000058590436903193904690000004151650618632542892_);">
					<path class="st2" d="M205.2,523l44.3-17.5l36,49.3L213.3,617c0,0,11.1-34.2,14.3-44.7c3.2-10.4-11.2-39-11.2-39L205.2,523z"/>
				</g>
			</g>
		</g>
		<polygon class="st3" points="225.6,582.6 274.8,545.4 251.4,506.4 208.9,561.2 202.8,556.5 252.2,492.8 285,547.4 230.2,588.7 		
			"/>
	</g>
	<g>
		<g>
			<path class="st0" d="M195.4,597c0,0,8.2,0.4,10-12.3c1.8-12.7-9.4-29.2-19-38c-9.6-8.8-27-8.6-32-2.9s-1.9,16-1.9,16L195.4,597
				L195.4,597z"/>
			<g>
				<defs>
					<path id="SVGID_00000034068565881971175340000006607926073414679170_" d="M195.4,597c0,0,8.2,0.4,10-12.3
						c1.8-12.7-9.4-29.2-19-38c-9.6-8.8-27-8.6-32-2.9s-1.9,16-1.9,16L195.4,597L195.4,597z"/>
				</defs>
				<clipPath id="SVGID_00000122706739000145103730000012894349173412842894_">
					<use xlink:href="#SVGID_00000034068565881971175340000006607926073414679170_"  style="overflow:visible;"/>
				</clipPath>
				<g style="clip-path:url(#SVGID_00000122706739000145103730000012894349173412842894_);">
					<path class="st2" d="M201.9,628.3c-0.6,0.6-84-65.3-84.9-65.6s25.7-38,25.7-38s25.1,37,36.4,48s32.9,16.4,32.9,16.4
						S202.4,627.6,201.9,628.3z"/>
				</g>
			</g>
		</g>
		<path class="st3" d="M167,539.9c6.6,0,14.2,2.1,19.5,6.9c9.6,8.8,20.7,25.2,19,38c-1.6,11.9-8.9,12.3-9.9,12.3c-0.1,0-0.1,0-0.1,0
			l-42.9-37.2c0,0-3.1-10.2,1.9-16C156.7,541.3,161.5,539.9,167,539.9 M167,532.1L167,532.1c-8,0-14.7,2.4-18.4,6.7
			c-7.6,8.7-4,21.8-3.5,23.3l0.7,2.1l1.7,1.5l42.9,37.2l2,1.7l2.6,0.2h0.5c5.5,0,15.5-4,17.5-19c2.1-15.4-9.6-34-21.4-44.7
			C185.4,535.4,176.4,532.1,167,532.1L167,532.1z"/>
	</g>
	<g>
		<g>
			<path class="st0" d="M216.3,616.9c0,0,8.2,0.4,10-12.3c1.8-12.7-9.4-29.2-19-38c-9.6-8.8-27-8.6-32-2.9s-1.9,16-1.9,16
				L216.3,616.9L216.3,616.9z"/>
			<g>
				<defs>
					<path id="SVGID_00000074438480769739358650000008116504239925229737_" d="M216.3,616.9c0,0,8.2,0.4,10-12.3
						c1.8-12.7-9.4-29.2-19-38c-9.6-8.8-27-8.6-32-2.9s-1.9,16-1.9,16L216.3,616.9L216.3,616.9z"/>
				</defs>
				<clipPath id="SVGID_00000170967827926511630890000012072417572416406688_">
					<use xlink:href="#SVGID_00000074438480769739358650000008116504239925229737_"  style="overflow:visible;"/>
				</clipPath>
				<g style="clip-path:url(#SVGID_00000170967827926511630890000012072417572416406688_);">
					<path class="st2" d="M233.7,610.3c0,0,4.1,37,4.2,38.6c0.1,1.6-39.3-18.6-39.3-18.6s-60.5-57-61.3-57.8s31.8-28.1,31.8-28.1
						s14.9,37.1,27.8,48.4C209.9,604.1,233.7,610.3,233.7,610.3L233.7,610.3z"/>
				</g>
			</g>
		</g>
		<path class="st3" d="M187.9,559.7c6.6,0,14.2,2.1,19.5,6.9c9.6,8.8,20.7,25.2,19,38c-1.6,11.9-8.9,12.3-9.9,12.3
			c-0.1,0-0.1,0-0.1,0l-42.9-37.2c0,0-3.1-10.2,1.9-16C177.6,561.1,182.4,559.7,187.9,559.7 M187.9,552L187.9,552
			c-8,0-14.7,2.4-18.4,6.7c-7.6,8.7-4,21.8-3.5,23.3l0.7,2.1l1.7,1.5l42.9,37.2l2,1.7l2.6,0.2h0.5c5.5,0,15.5-4,17.5-19
			c2.1-15.4-9.6-34-21.4-44.7C206.4,555.2,197.4,552,187.9,552L187.9,552z"/>
	</g>
</g>
<g>
	<path class="st6" d="M337.7,546.2c-3.4,4.5-31.5,37.6-37.2,63c-5.8,26,1.1,44.4,1.1,44.4s3.1-11.2,20.5-18.3
		c10.3-4.2,20.1-2.6,20.1-2.6s-6.2,36.7,9.6,70.1s53.7,63.8,53.7,63.8s-6.6-37.7-4-47.5c5.9-21.5,18.6-29.4,18.6-29.4
		s10.2,2.5,17.5,21.5c4.5,11.7,2.3,29.4,2.3,29.4s24.3-8.5,23.7-52.5c-0.6-44.1-15.3-87-15.3-87s15,0.3,28.5,14.3
		c9.4,9.7,11.9,26.9,11.9,26.9s9.5-28.8,2.8-48.3c-6.5-18.5-31.8-56.8-31.8-56.8L337.7,546.2L337.7,546.2z"/>
	<path class="st7" d="M411.1,776l-8-6.5c-1.6-1.3-38.7-31.5-54.8-65.2c-13.2-27.8-11.6-57.3-10.5-68.2c-3.4,0-8.9,0.4-14.3,2.6
		c-15.2,6.2-18.2,15.4-18.3,15.8l-3.3,10.9l-4-10.6c-0.3-0.8-7.2-19.8-1.2-46.6c5.3-23.6,28.5-52.6,36.1-62.2c0.8-1,1.5-1.8,1.8-2.3
		l1-1.4l126.1-9.3l1.2,1.9c1,1.6,25.7,38.9,32.2,57.7c7.1,20.5-2.3,49.6-2.8,50.8l-5.1,15.6l-2.3-16.2c0-0.2-2.4-16.1-10.8-24.8
		c-7.3-7.5-15.1-10.8-20.2-12.1c4.1,13.5,13.1,47.2,13.5,82.1c0.6,46.3-25.2,55.9-26.3,56.2l-5.9,2.1l0.8-6.2c0-0.2,2.1-16.9-2-27.5
		c-4.8-12.3-10.7-16.9-13.4-18.4c-3.3,2.8-11.2,10.7-15.4,26c-1.8,6.5,1.5,31.5,4,45.8L411.1,776L411.1,776z M337.5,628.5
		c3.1,0,5.1,0.3,5.3,0.3l3.8,0.6l-0.6,3.8c-0.1,0.4-5.8,36,9.3,67.8c10.9,23,32.9,44.8,44.7,55.6c-1.8-12.3-4.1-31.4-2.2-38.6
		c6.3-22.8,19.8-31.3,20.4-31.7l1.4-0.8l1.6,0.4c1.2,0.3,12.3,3.6,20.2,23.8c2.9,7.5,3.2,17,3,23.6c6.4-5.3,15.8-17.9,15.5-45.3
		c-0.5-42.9-14.9-85.4-15-85.8L443,597l5.5,0.1c0.7,0,16.7,0.6,31.2,15.5c4,4.1,6.9,9.4,8.8,14.3c1.7-9.5,2.8-22-0.6-31.8
		c-5.4-15.5-25-46.2-30.1-54l-118.1,8.8c-0.3,0.3-0.5,0.7-0.9,1.1c-7.4,9.2-29.7,37.2-34.6,59c-3.2,14.2-2.4,26.1-1.1,33.6
		c3.4-3.9,8.9-8.5,17.5-12C327,629,333.3,628.4,337.5,628.5L337.5,628.5z"/>
</g>
<path class="st8" d="M372.8,547.5c0,0-23.6,21.3-30.3,35.2c-6.1,12.7-7.4,28.4-7.4,28.4s12.4-10.1,20.1-15c12.8-8.2,22-8,22-8
	s15.1,20.5,14.6,47c-0.5,25.3-6.1,42.8-6.1,42.8s35.6-26.1,39.4-57.8s2.1-68.9,2.1-68.9L372.8,547.5L372.8,547.5z"/>
<g>
	<g>
		<g>
			<polygon class="st0" points="506.9,540 570,587.7 592.9,568 535,493.3 			"/>
			<g>
				<defs>
					<polygon id="SVGID_00000045610321922483099110000010445400208181633964_" points="506.9,540 570,587.7 592.9,568 535,493.3 
											"/>
				</defs>
				<clipPath id="SVGID_00000168110465251501814880000011600375885827354771_">
					<use xlink:href="#SVGID_00000045610321922483099110000010445400208181633964_"  style="overflow:visible;"/>
				</clipPath>
				<g style="clip-path:url(#SVGID_00000168110465251501814880000011600375885827354771_);">
					<path class="st2" d="M570.3,527c0,0-14.4,28.6-11.2,39c3.2,10.4,14.3,44.7,14.3,44.7l-72.3-62.3l36-49.3l44.3,17.5L570.3,527z"
						/>
				</g>
			</g>
		</g>
		<polygon class="st3" points="556.5,582.4 501.8,541 534.6,486.4 584,550.2 577.9,554.9 535.4,500.1 511.9,539 561.2,576.2 		"/>
	</g>
	<g>
		<g>
			<path class="st0" d="M591.4,590.7l42.9-37.2c0,0,3.1-10.2-1.9-16s-22.4-5.9-32,2.9c-9.6,8.8-20.7,25.2-19,38
				C583.1,591.2,591.4,590.7,591.4,590.7L591.4,590.7z"/>
			<g>
				<defs>
					<path id="SVGID_00000119086135851677722960000017927897640165407147_" d="M591.4,590.7l42.9-37.2c0,0,3.1-10.2-1.9-16
						s-22.4-5.9-32,2.9c-9.6,8.8-20.7,25.2-19,38C583.1,591.2,591.4,590.7,591.4,590.7L591.4,590.7z"/>
				</defs>
				<clipPath id="SVGID_00000010297024070200170770000014034375041894237335_">
					<use xlink:href="#SVGID_00000119086135851677722960000017927897640165407147_"  style="overflow:visible;"/>
				</clipPath>
				<g style="clip-path:url(#SVGID_00000010297024070200170770000014034375041894237335_);">
					<path class="st2" d="M574.7,582.8c0,0,21.6-5.4,32.9-16.4s36.4-48,36.4-48s26.5,37.6,25.7,38s-84.3,66.3-84.9,65.6
						S574.7,582.8,574.7,582.8z"/>
				</g>
			</g>
		</g>
		<path class="st3" d="M619.8,533.5c5.5,0,10.3,1.5,12.6,4c5,5.7,1.9,16,1.9,16l-42.9,37.2c0,0,0,0-0.1,0c-1,0-8.2-0.4-9.9-12.3
			c-1.8-12.7,9.3-29.2,19-38C605.6,535.7,613.2,533.5,619.8,533.5 M619.8,525.8c-9.5,0-18.5,3.3-24.7,9
			c-11.8,10.8-23.5,29.4-21.4,44.7c2.1,15,12,19,17.5,19h0.5l2.6-0.2l2-1.7l42.9-37.2l1.7-1.5l0.7-2.1c0.4-1.5,4.1-14.6-3.5-23.3
			C634.4,528.3,627.7,525.8,619.8,525.8L619.8,525.8L619.8,525.8z"/>
	</g>
	<g>
		<g>
			<path class="st0" d="M570.4,610.5l42.9-37.2c0,0,3.1-10.2-1.9-16s-22.4-5.9-32,2.9c-9.6,8.8-20.7,25.2-19,38
				C562.2,611,570.4,610.5,570.4,610.5L570.4,610.5z"/>
			<g>
				<defs>
					<path id="SVGID_00000012460861866544906730000002699163277823548853_" d="M570.4,610.5l42.9-37.2c0,0,3.1-10.2-1.9-16
						s-22.4-5.9-32,2.9c-9.6,8.8-20.7,25.2-19,38C562.2,611,570.4,610.5,570.4,610.5L570.4,610.5z"/>
				</defs>
				<clipPath id="SVGID_00000060741812357400815490000008459160564091628212_">
					<use xlink:href="#SVGID_00000012460861866544906730000002699163277823548853_"  style="overflow:visible;"/>
				</clipPath>
				<g style="clip-path:url(#SVGID_00000060741812357400815490000008459160564091628212_);">
					<path class="st2" d="M553,604c0,0,23.8-6.2,36.8-17.6c13-11.3,27.8-48.4,27.8-48.4s32.6,27.4,31.8,28.1s-61.3,57.8-61.3,57.8
						s-39.4,20.2-39.3,18.6C549,641,553,604,553,604L553,604z"/>
				</g>
			</g>
		</g>
		<path class="st3" d="M598.8,553.4c5.5,0,10.3,1.5,12.6,4c5,5.7,1.9,16,1.9,16l-42.9,37.2c0,0,0,0-0.1,0c-1,0-8.2-0.4-9.9-12.3
			c-1.8-12.7,9.3-29.2,19-38C584.6,555.5,592.2,553.4,598.8,553.4 M598.8,545.6c-9.5,0-18.5,3.3-24.7,9
			c-11.8,10.8-23.5,29.4-21.4,44.7c2.1,15,12,19,17.5,19h0.5l2.6-0.2l2-1.7l42.9-37.2l1.7-1.5l0.7-2.1c0.4-1.5,4.1-14.6-3.5-23.3
			C613.5,548.1,606.8,545.6,598.8,545.6L598.8,545.6L598.8,545.6z"/>
	</g>
</g>
<g>
	<g>
		<path class="st12" d="M538.4,484.8c16.7,12.6,31,44.5,18.5,61.2s-47.2,11.8-63.9-0.8s-20-36.3-7.5-53
			C498,475.5,521.7,472.2,538.4,484.8L538.4,484.8z"/>
		<g>
			<defs>
				<path id="SVGID_00000075133110354327310610000006235249967044983708_" d="M538.4,484.8c16.7,12.6,31,44.5,18.5,61.2
					s-47.2,11.8-63.9-0.8s-20-36.3-7.5-53C498,475.5,521.7,472.2,538.4,484.8L538.4,484.8z"/>
			</defs>
			<clipPath id="SVGID_00000111881370528680656650000001384193603722263213_">
				<use xlink:href="#SVGID_00000075133110354327310610000006235249967044983708_"  style="overflow:visible;"/>
			</clipPath>
			<g style="clip-path:url(#SVGID_00000111881370528680656650000001384193603722263213_);">
				<path class="st14" d="M481.5,557.5c0.9,0.4,50-7.2,59.5-16.3c9.5-9.1,23.9-61.9,23.9-61.9l-87.9-0.4L465.3,556L481.5,557.5
					L481.5,557.5z"/>
			</g>
		</g>
	</g>
	<path class="st3" d="M530,560.4c-14.5,0-30-5-39.5-12.2c-18.4-13.8-22-40-8.2-58.4c13.8-18.4,40-22,58.4-8.2
		c17.4,13.1,33.5,47.6,19.2,66.6C553.4,557,542.1,560.5,530,560.4L530,560.4z M515.7,481c-10.3,0-20.5,4.7-27.2,13.5
		c-11.3,15-8.2,36.3,6.7,47.5c14.7,11.1,47.4,16.3,58.5,1.6c11.1-14.7-3-44.7-17.7-55.8C529.9,483.2,522.8,481,515.7,481L515.7,481z
		"/>
</g>
<g>
	<g>
		<path class="st12" d="M250,490.9c-16.7,12.6-31,44.5-18.4,61.2s47.2,11.8,63.9-0.8s20-36.3,7.5-53S266.7,478.4,250,490.9
			L250,490.9z"/>
		<g>
			<defs>
				<path id="SVGID_00000170254954393594832460000016266314376842533566_" d="M250,490.9c-16.7,12.6-31,44.5-18.4,61.2
					s47.2,11.8,63.9-0.8s20-36.3,7.5-53S266.7,478.4,250,490.9L250,490.9z"/>
			</defs>
			<clipPath id="SVGID_00000150790700089025775940000006822255433449177263_">
				<use xlink:href="#SVGID_00000170254954393594832460000016266314376842533566_"  style="overflow:visible;"/>
			</clipPath>
			<g style="clip-path:url(#SVGID_00000150790700089025775940000006822255433449177263_);">
				<path class="st14" d="M237.1,484c0,0-6.8,45.8,8.8,54.5s75.7,23.5,75.7,23.5s13.6-80,12.7-81.6s-61.3-18.9-63.6-18.9
					S237.1,484,237.1,484L237.1,484z"/>
			</g>
		</g>
	</g>
	<path class="st3" d="M258.4,566.6c-12.1,0-23.4-3.5-29.9-12.1c-14.3-19,1.8-53.5,19.2-66.6c8.9-6.7,19.9-9.5,30.9-8
		c11,1.5,20.8,7.3,27.5,16.2c6.7,8.9,9.5,19.9,8,30.9s-7.3,20.8-16.2,27.5C288.4,561.5,272.8,566.6,258.4,566.6L258.4,566.6z
		 M272.7,487.2c-7.3,0-14.4,2.4-20.4,6.8c-14.7,11.1-28.8,41.1-17.7,55.8s43.8,9.5,58.5-1.6c7.2-5.5,11.9-13.4,13.2-22.4
		c1.3-9-1-17.9-6.5-25.2s-13.4-11.9-22.4-13.2C275.9,487.3,274.3,487.2,272.7,487.2L272.7,487.2z"/>
</g>
<g>
	<path class="st16" d="M316.1,199.2c-6.4-3.8-49.6-16.1-56.4-49.6s20.8-44.4,28.4-46.5s38.6,5.4,38.6,5.4s-19.7-25-13.6-52.1
		s33.7-29.7,38.4-29.7s67.6,14.1,90.1,56.9s13.8,120.6,13.8,120.6L316.1,199.2L316.1,199.2z"/>
	<g>
		<defs>
			<path id="SVGID_00000098942538309708033410000017318873911924421286_" d="M316.1,199.2c-6.4-3.8-49.6-16.1-56.4-49.6
				s20.8-44.4,28.4-46.5s38.6,5.4,38.6,5.4s-19.7-25-13.6-52.1s33.7-29.7,38.4-29.7s67.6,14.1,90.1,56.9s13.8,120.6,13.8,120.6
				L316.1,199.2L316.1,199.2z"/>
		</defs>
		<clipPath id="SVGID_00000132066557484932254880000003953834716312588463_">
			<use xlink:href="#SVGID_00000098942538309708033410000017318873911924421286_"  style="overflow:visible;"/>
		</clipPath>
		<g style="clip-path:url(#SVGID_00000132066557484932254880000003953834716312588463_);">
			<path class="st18" d="M316,40.4c0,0,11.2,36.5,27.5,52.8c16.3,16.3,30.7,63.2,30.7,63.2s-19.7,7.8-19.7,7.2s-6.8-35-14.8-42.6
				s-33.9-23.1-33.9-23.1L234,104l4.7,44.1c0,0,16.5-12.5,30.3-3.6c13.8,8.9,30.9,50,30.9,50l-49.2,11.9L227,116.7l17.2-41.5
				l45.1-30.5L316,40.4L316,40.4z"/>
		</g>
	</g>
</g>
<path class="st3" d="M352.1,31.7c33.4,0,78.9,36.7,87.8,56.7c11.3,25.4,19.8,101.7,19.8,101.7l-150.9,8.5c0,0-64.4-35-41.8-74
	c8.3-14.4,20.1-18.9,31.5-18.9c19.6,0,38.5,13.3,38.5,13.3s-37.9-47.5-8.5-78C334.8,34.4,343,31.7,352.1,31.7 M352.1,24L352.1,24
	c-11.9,0-21.7,3.9-29.1,11.6c-19.9,20.7-14.1,47-5.6,65.4c-5.8-1.8-12.3-3.1-18.8-3.1c-16.4,0-29.6,7.9-38.2,22.8
	c-6,10.3-7.4,21.2-4.2,32.4c8.4,29.9,47.4,51.4,49,52.3l1.9,1.1l2.2-0.1l150.9-8.5l8.1-0.5l-0.9-8.1c-0.4-3.2-8.7-77.8-20.4-104
	C436.6,62.2,388,24,352.1,24L352.1,24L352.1,24z"/>
<g>
	<path class="st12" d="M259.6,521.9c14.7,14.5,26.8,32.1,131.1,41.8c91,8.5,149.9-39,163.3-71.9c13.3-32.9,44.2-99.6,10.3-205.4
		c-33.9-105.8-94.5-140.7-181.8-143.8c-29.9-1.1-104.8,19.5-132.5,110.9s-31.9,100.3-33.9,135C214,426,215.8,478.8,259.6,521.9
		L259.6,521.9z"/>
	<g>
		<defs>
			<path id="SVGID_00000051342421525742700830000001287855593546847676_" d="M259.6,521.9c14.7,14.5,26.8,32.1,131.1,41.8
				c91,8.5,149.9-39,163.3-71.9c13.3-32.9,44.2-99.6,10.3-205.4c-33.9-105.8-94.5-140.7-181.8-143.8
				c-29.9-1.1-104.8,19.5-132.5,110.9s-31.9,100.3-33.9,135C214,426,215.8,478.8,259.6,521.9L259.6,521.9z"/>
		</defs>
		<clipPath id="SVGID_00000075156024386993089560000013824734052961965445_">
			<use xlink:href="#SVGID_00000051342421525742700830000001287855593546847676_"  style="overflow:visible;"/>
		</clipPath>
		<g style="clip-path:url(#SVGID_00000075156024386993089560000013824734052961965445_);">
			<path class="st14" d="M248,246.9c0,0,16.9-4.6,19.3,15.4c2.3,20-6.2,94-3.1,130.2c0.5,6.2,4-31,18.5-10.8
				c12.7,17.8-13.4,83.4-10.8,97.8c4.1,23.2,7.6,31.4,51.7,50.9c18.6,8.2,56.8,21.6,116.5,10.2c26.7-5.1,63.9-16.7,87.3-50.4
				c10.6-15.2,6.1-44.5-6.9-92c-2.3-8.5,25.6-10.2,24.9-19.5c-10.2-131.4,83.3-251.7,83.3-251.7s101.2,522.4,95.8,524.7
				c-5.4,2.3-614.4-46.5-613.6-53.5c0.8-6.9,1.5-338.9,6.2-343.5S248,246.9,248,246.9L248,246.9z"/>
		</g>
	</g>
</g>
<path class="st3" d="M411.8,568.6c-7,0-14.1-0.3-21.5-1c-100-9.3-116.5-26-131.1-40.6l-2.3-2.3c-43.9-43.3-46.9-95.5-44.7-136.2
	c1.7-30.1,5-40.9,23.3-100.8c3.1-10.2,6.7-21.8,10.7-35.2c29.2-96.1,108.3-114.7,136.3-113.7c98.1,3.5,153.5,47.3,185.3,146.5
	c32.9,102.7,5.9,168.4-8.6,203.7l-1.8,4.3C544.1,526.4,491,568.6,411.8,568.6L411.8,568.6z M262.3,519.1l2.4,2.4
	c13.6,13.7,29.1,29.3,126.3,38.4c87.1,8.2,145.6-35.7,159.4-69.5l1.8-4.3c14.1-34.4,40.4-98.4,8.4-198.4
	c-30.6-95.6-83.9-137.8-178.2-141.1c-26.4-0.9-100.9,16.7-128.6,108.2c-4.1,13.4-7.6,25-10.8,35.2c-18.1,59.1-21.4,69.7-23,98.9
	C217.7,427.9,220.5,478,262.3,519.1L262.3,519.1L262.3,519.1z"/>
<g>
	<g>
		<path class="st12" d="M266.5,419.8c0,0,21.4-21.3,6-56c-15.4-34.7-84-47-96.4-57.3s-41.7-26.4-51.3-22.3
			c-9.7,4.1-17,19.9-16.2,30.2c0.7,10.4,11.1,25.9,11.1,25.9s-21.4-6.6-32,2s-17.8,47.6,0.4,77.2s71,72.7,112.8,56.4
			C242.7,459.7,266.5,419.8,266.5,419.8L266.5,419.8z"/>
		<g>
			<defs>
				<path id="SVGID_00000108284293935762985040000006644678406546413459_" d="M266.5,419.8c0,0,21.4-21.3,6-56
					c-15.4-34.7-84-47-96.4-57.3s-41.7-26.4-51.3-22.3c-9.7,4.1-17,19.9-16.2,30.2c0.7,10.4,11.1,25.9,11.1,25.9s-21.4-6.6-32,2
					s-17.8,47.6,0.4,77.2s71,72.7,112.8,56.4C242.7,459.7,266.5,419.8,266.5,419.8L266.5,419.8z"/>
			</defs>
			<clipPath id="SVGID_00000145773672701886467640000007479055028983029690_">
				<use xlink:href="#SVGID_00000108284293935762985040000006644678406546413459_"  style="overflow:visible;"/>
			</clipPath>
			<g style="clip-path:url(#SVGID_00000145773672701886467640000007479055028983029690_);">
				<path class="st14" d="M210.7,314.1c0,0-59.7-14.1-70.8-3.5c-10.5,10.1,0.2,29.7,2.9,38.6s-3,15.1-7.3,15.6
					c-7.2,0.9-24.9-8.8-28.8-2.3c-3.9,6.4-2.9,32.5,13.8,62.4c16.2,29.2,45.4,68,45.4,68l-66.2-3.3l-67.8-92.9
					c0,0,42.3-98,44.4-98.7c2.1-0.7,66.5-30.5,66.5-30.5L210.7,314.1L210.7,314.1z"/>
			</g>
		</g>
	</g>
	<path class="st3" d="M276.2,402.1c12-53.8-46.6-72.1-86.8-85.9c-16-5.2-29-19-45.1-24.9c-10.2-4-19-8.2-26,3.4
		c-13.6,18.6-0.8,35.7,9.9,51.9c-11.2-3-24.8-7.6-35.8-2.7c-11.9,8.5-11.9,27.5-11.5,41.5c1.4,26.3,18.8,47.3,38,63.7
		c49.2,43,92.3,33.7,134.9-12.3c-8.2,10.3-17.8,19.6-28.6,27.4c-47.4,39.3-107.3,3-137.9-39.7c-15.4-23-19-53.6-6.9-79.1
		c7.8-14.2,27.1-12.4,40.3-8.6l-4.2,5.7c-6.2-10.3-13.4-22.1-11.2-34.6c2.4-11.9,10.1-27.5,23.9-27.7c12.7,1.3,22.8,7.2,33.4,13.1
		c10,5.7,17.4,13.9,28.9,17.6C232.2,326.2,291.4,346.9,276.2,402.1L276.2,402.1L276.2,402.1z"/>
</g>
<g>
	<g>
		<path class="st12" d="M533.5,410.5c0,0-21.4-21.3-6-56c15.4-34.7,84-47,96.4-57.3s41.7-26.4,51.3-22.3c9.7,4.1,17,19.9,16.2,30.2
			c-0.7,10.4-11.1,25.9-11.1,25.9s21.5-6.6,32,2s17.8,47.6-0.4,77.2s-71,72.7-112.8,56.4C557.3,450.4,533.5,410.5,533.5,410.5
			L533.5,410.5z"/>
		<g>
			<defs>
				<path id="SVGID_00000157278926784806640060000012677381776556306620_" d="M533.5,410.5c0,0-21.4-21.3-6-56
					c15.4-34.7,84-47,96.4-57.3s41.7-26.4,51.3-22.3c9.7,4.1,17,19.9,16.2,30.2c-0.7,10.4-11.1,25.9-11.1,25.9s21.5-6.6,32,2
					s17.8,47.6-0.4,77.2s-71,72.7-112.8,56.4C557.3,450.4,533.5,410.5,533.5,410.5L533.5,410.5z"/>
			</defs>
			<clipPath id="SVGID_00000080168529656192484800000014905457598471888021_">
				<use xlink:href="#SVGID_00000157278926784806640060000012677381776556306620_"  style="overflow:visible;"/>
			</clipPath>
			<g style="clip-path:url(#SVGID_00000080168529656192484800000014905457598471888021_);">
				<path class="st14" d="M589.3,304.8c0,0,59.7-14.1,70.8-3.5c10.5,10.1-0.2,29.7-3,38.6s3,15.1,7.3,15.6
					c7.2,0.9,24.9-8.8,28.8-2.3c3.9,6.4,2.9,32.5-13.8,62.4c-16.2,29.2-45.4,68-45.4,68l66.2-3.3l67.8-93c0,0-42.3-98-44.4-98.7
					c-2-0.7-66.5-30.5-66.5-30.5L589.3,304.8L589.3,304.8z"/>
			</g>
		</g>
	</g>
	<path class="st3" d="M523.8,392.7c-15.1-55.2,44-75.9,84.7-91.1c16.6-6.4,27.8-19.6,44.5-25.8c6.9-2.7,15.2-6.7,23.4-4.1
		c13,6.4,20.1,22.6,18.2,36.7c-1.9,9.1-6.4,17-11.2,24.7l-4.2-5.7c13.2-3.8,32.6-5.6,40.3,8.6c12.2,25.5,8.5,56.2-6.9,79.1
		c-23.2,31.5-60.6,60.4-101.7,56.4c-26.6-5.2-48-23.9-64.8-44c42.6,46,85.7,55.3,134.9,12.3c19.3-16.4,36.6-37.4,38-63.7
		c0.5-14,0.4-33.1-11.5-41.5c-11.1-4.9-24.7-0.3-35.8,2.7c10.7-16.1,23.5-33.4,9.9-51.9c-7-11.5-15.8-7.4-26-3.4
		c-16.1,5.9-29.1,19.6-45.1,24.9C570.4,320.6,511.8,339,523.8,392.7L523.8,392.7L523.8,392.7z"/>
</g>
<g>
	<path class="st14" d="M402.7,378.1c0,0-29.1,31.7-26.3,46.4c2.8,14.7,7.4,22,17.8,23.1c10.5,1.1,24.8,0.3,28.5-3.1
		c3.7-3.4,12.4,1.7,18.9-0.9c6.5-2.5,18.9-14.1,18.9-21.5s-22.3-38.7-22.3-38.7L402.7,378.1L402.7,378.1z"/>
	<g>
		<path class="st16" d="M430.5,421.1c0.8,13.1-9.3,24.4-22.4,25.2s-24.4-9.3-25.2-22.4s21.2-47.5,21.2-47.5S429.8,408,430.5,421.1
			L430.5,421.1z"/>
		<g>
			<defs>
				<path id="SVGID_00000150090723604100791600000011974501118444352137_" d="M430.5,421.1c0.8,13.1-9.3,24.4-22.4,25.2
					s-24.4-9.3-25.2-22.4s21.2-47.5,21.2-47.5S429.8,408,430.5,421.1L430.5,421.1z"/>
			</defs>
			<clipPath id="SVGID_00000037658243585512852250000009316966053218499478_">
				<use xlink:href="#SVGID_00000150090723604100791600000011974501118444352137_"  style="overflow:visible;"/>
			</clipPath>
			<g style="clip-path:url(#SVGID_00000037658243585512852250000009316966053218499478_);">
				<path class="st23" d="M407,447.1c0,0-14.3-12.4-15-26.2c-0.5-8.3,15.3-36.4,15.3-36.4s-25.3-12-25.8-11s-35.1,73.1-35.1,73.1
					l62.3,26.4L407,447.1L407,447.1z"/>
			</g>
		</g>
	</g>
	<g>
		<path class="st16" d="M458.2,410.1c4.5,10.5-0.3,22.7-10.9,27.3c-10.5,4.5-22.7-0.3-27.3-10.9c-4.5-10.5,3.9-43.3,3.9-43.3
			S453.6,399.6,458.2,410.1L458.2,410.1z"/>
		<g>
			<defs>
				<path id="SVGID_00000109029912570049446630000002609173267114377894_" d="M458.2,410.1c4.5,10.5-0.3,22.7-10.9,27.3
					c-10.5,4.5-22.7-0.3-27.3-10.9c-4.5-10.5,3.9-43.3,3.9-43.3S453.6,399.6,458.2,410.1L458.2,410.1z"/>
			</defs>
			<clipPath id="SVGID_00000114778876187466779570000009160794579836898460_">
				<use xlink:href="#SVGID_00000109029912570049446630000002609173267114377894_"  style="overflow:visible;"/>
			</clipPath>
			<g style="clip-path:url(#SVGID_00000114778876187466779570000009160794579836898460_);">
				<path class="st23" d="M443.8,381.9c0,0-14.4,26.4-14.9,35.2c-0.6,9.5,18.2,30.3,18.2,30.3s-38.4-3.3-38-5.5
					c0.3-2.2,6-60.5,6-60.5L443.8,381.9L443.8,381.9z"/>
			</g>
		</g>
	</g>
</g>
<g>
	<g>
		<path class="st3" d="M378.4,257.7c5.5,22.4-9.3,46.8-28.5,46.8s-37.3-16.3-40.5-35.2c-3.4-19.6,11.3-45.2,30.5-45.2
			S372.6,234.1,378.4,257.7L378.4,257.7z"/>
		<path class="st25" d="M372.9,275.2c0,7.3-4.7,14.3-12,14.3s-14.3-7-14.3-14.3s4-14,11.2-14S372.9,268,372.9,275.2L372.9,275.2z"/>
		<path class="st26" d="M342.8,293.3c-2.6,2.6-8.1,1.3-10.6-1.2c-2.5-2.5-4-8.4-1.4-11s8.6-1.1,11.1,1.3S345.4,290.7,342.8,293.3
			L342.8,293.3z"/>
	</g>
	<path class="st12" d="M300.2,242.9c0,0,21.9,12.5,39.8,15.2c17.9,2.7,49.7,7,49.7,7s6.4-54.7-40.5-65.7S300.2,242.9,300.2,242.9
		L300.2,242.9z"/>
</g>
<g>
	<g>
		<path class="st3" d="M441.2,251.3c-5.5,22.4,9.3,46.8,28.5,46.8c19.2,0,37.3-16.3,40.5-35.2c3.4-19.6-11.3-45.2-30.5-45.2
			S447,227.7,441.2,251.3L441.2,251.3z"/>
		<path class="st25" d="M446.7,268.9c0,7.3,4.7,14.3,12,14.3s14.3-7,14.3-14.3c0-7.3-4-14-11.2-14S446.7,261.6,446.7,268.9
			L446.7,268.9z"/>
		<path class="st26" d="M476.8,286.9c2.6,2.6,8.1,1.3,10.6-1.2c2.5-2.5,4-8.4,1.4-11s-8.6-1.1-11.1,1.3
			C475.1,278.6,474.1,284.3,476.8,286.9L476.8,286.9z"/>
	</g>
	<path class="st12" d="M519.4,236.5c0,0-21.9,12.5-39.8,15.2c-17.9,2.7-49.7,7-49.7,7s-6.4-54.7,40.5-65.7S519.4,236.5,519.4,236.5
		L519.4,236.5z"/>
</g>
<g>
	<path class="st23" d="M381.2,331.1c0,0,13.5,19.4,16,26.8c2.1,6.4,3,26.7,3,26.7l37.4,0.1c0,0-2.5-20.7-0.6-27.3
		c2.4-8.3,19.1-28.7,19.1-28.7L381.2,331.1L381.2,331.1z"/>
	<g>
		<defs>
			<path id="SVGID_00000006704584269729923090000013169229611116692403_" d="M381.2,331.1c0,0,13.5,19.4,16,26.8
				c2.1,6.4,3,26.7,3,26.7l37.4,0.1c0,0-2.5-20.7-0.6-27.3c2.4-8.3,19.1-28.7,19.1-28.7L381.2,331.1L381.2,331.1z"/>
		</defs>
		<clipPath id="SVGID_00000052083936848686174630000017195131395435627156_">
			<use xlink:href="#SVGID_00000006704584269729923090000013169229611116692403_"  style="overflow:visible;"/>
		</clipPath>
		<g style="clip-path:url(#SVGID_00000052083936848686174630000017195131395435627156_);">
			<path class="st28" d="M392,362.5c0.3-0.1,17.7-8.9,25-9c14.6-0.3,28.8,8.8,30.4,11.8s2.6,31.4,2,31.4s-56.6,0.4-56.7-0.1
				S392,362.5,392,362.5L392,362.5z"/>
		</g>
	</g>
</g>
<path class="st3" d="M445.6,328.9c0,0-12,20.4-13.8,28.7c-1.4,6.5,0.4,27.3,0.4,27.3l-27-0.1c0,0-0.6-20.3-2.1-26.7
	c-1.8-7.4-11.5-26.8-11.5-26.8L445.6,328.9 M445.6,321.2c-0.1,0-0.2,0-0.3,0l-54,2.3c-2.6,0.1-5,1.5-6.3,3.8c-1.3,2.3-1.4,5-0.3,7.4
	c3.6,7.2,9.8,20.4,10.9,25.2c1,4.1,1.7,17.6,1.9,25.1c0.1,4.2,3.5,7.5,7.7,7.5l27,0.1h0c2.2,0,4.2-0.9,5.7-2.5s2.2-3.7,2-5.9
	c-0.7-8.1-1.3-21.3-0.5-25c1-4.8,8.1-18.3,12.8-26.4c1.4-2.4,1.4-5.5,0-7.9C450.9,322.5,448.3,321.1,445.6,321.2L445.6,321.2
	L445.6,321.2z"/>
<g>
	<g>
		<path class="st29" d="M385.5,340.1l61.7-0.6c0,0,5.7-1.9,5.7-8.2s-0.2-33.3-33.1-34c-32.8-0.7-35.2,34.5-35.2,34.5
			S384.2,337.7,385.5,340.1L385.5,340.1z"/>
		<g>
			<defs>
				<path id="SVGID_00000165203059793680917300000015745896094471503028_" d="M385.5,340.1l61.7-0.6c0,0,5.7-1.9,5.7-8.2
					s-0.2-33.3-33.1-34c-32.8-0.7-35.2,34.5-35.2,34.5S384.2,337.7,385.5,340.1L385.5,340.1z"/>
			</defs>
			<clipPath id="SVGID_00000071541627747034685530000003840247618353795742_">
				<use xlink:href="#SVGID_00000165203059793680917300000015745896094471503028_"  style="overflow:visible;"/>
			</clipPath>
			<g style="clip-path:url(#SVGID_00000071541627747034685530000003840247618353795742_);">
				<path class="st31" d="M411.8,297.2c0,0-14.8,16.1-14.8,25.9s2.5,33.5,2.5,33.5s-30.9-22.7-30.7-23.9s12.3-33.9,13.4-36
					s28-15.5,28-15.5L411.8,297.2L411.8,297.2z"/>
			</g>
		</g>
	</g>
	<path class="st3" d="M418.8,297.3c0.3,0,0.7,0,1,0c32.8,0.7,33.1,27.8,33.1,34s-5.7,8.2-5.7,8.2l-61.7,0.6
		c-1.3-2.3-0.9-8.3-0.9-8.3S386.9,297.3,418.8,297.3 M418.8,289.6c-30.9,0-40.9,27.3-41.9,41.8c-0.2,3-0.3,8.7,1.8,12.5
		c1.4,2.5,4,4,6.8,4h0.1l61.7-0.6c0.8,0,1.6-0.1,2.4-0.4c4.1-1.4,11-6.2,11-15.5c0-25.9-14.8-41.1-40.6-41.7L418.8,289.6
		L418.8,289.6z"/>
</g>
<path class="st32" d="M431.8,371.8c0,7.2-6.1,13-13.7,13s-13.7-5.8-13.7-13c0-4.2,1.4-10.1,5.4-10.3c7-0.4,7.8,3.5,7.8,3.5
	s2.8-4.2,9.5-2.9C430.8,362.8,431.8,367.9,431.8,371.8L431.8,371.8z"/>
<g>
	<g>
		<path class="st29" d="M434.6,376.9l-28.4,0.3c0,0-2.6,0.9-2.6,3.8s0.1,15.3,15.2,15.6c15.1,0.3,16.2-15.9,16.2-15.9
			S435.2,378,434.6,376.9L434.6,376.9z"/>
		<g>
			<defs>
				<path id="SVGID_00000117636577980874022910000005968519655019329178_" d="M434.6,376.9l-28.4,0.3c0,0-2.6,0.9-2.6,3.8
					s0.1,15.3,15.2,15.6c15.1,0.3,16.2-15.9,16.2-15.9S435.2,378,434.6,376.9L434.6,376.9z"/>
			</defs>
			<clipPath id="SVGID_00000077310963540772191580000006200486485505644476_">
				<use xlink:href="#SVGID_00000117636577980874022910000005968519655019329178_"  style="overflow:visible;"/>
			</clipPath>
			<g style="clip-path:url(#SVGID_00000077310963540772191580000006200486485505644476_);">
				<path class="st31" d="M422.5,396.7c0,0,6.8-7.4,6.8-11.9s-1.2-15.4-1.2-15.4s14.2,10.4,14.1,11c-0.1,0.6-5.7,15.6-6.1,16.6
					c-0.5,1-12.9,7.1-12.9,7.1L422.5,396.7L422.5,396.7z"/>
			</g>
		</g>
	</g>
	<path class="st3" d="M434.6,376.9c0.6,1.1,0.4,3.8,0.4,3.8s-1,15.9-15.7,15.9c-0.1,0-0.3,0-0.5,0c-15.1-0.3-15.2-12.8-15.2-15.6
		s2.6-3.8,2.6-3.8L434.6,376.9 M434.6,369.2L434.6,369.2l-28.5,0.3c-0.8,0-1.6,0.1-2.4,0.4c-3.9,1.3-7.9,5.2-7.9,11.1
		c0,14.1,8.7,23.1,22.8,23.4h0.6c16.1,0,22.8-13.8,23.4-23.1c0.2-3.3-0.2-6-1.3-8C440,370.7,437.4,369.2,434.6,369.2L434.6,369.2
		L434.6,369.2z"/>
</g>
<g>
	<path class="st16" d="M503,174.5h-0.1c-8.7-0.1-19.6-7.8-20.8-8.7l4.5-6.2c2.7,2,11,7.2,16.4,7.2h0c3.3,0,8.1-7.4,10.3-12.8
		l7.2,2.9C519.2,159.9,512.8,174.5,503,174.5L503,174.5z"/>
	<path class="st16" d="M522.1,205.1c-1-1.1-9.6-11.3-10.5-19.9c-1-9.9,13.2-17.6,16-19l3.5,6.9c-5.2,2.6-12.2,8.1-11.8,11.4
		c0.5,5.3,6.4,13.1,8.6,15.7L522.1,205.1L522.1,205.1z"/>
	<path class="st16" d="M489.4,219.2l-7.2-2.9c1.2-2.9,7.6-17.6,17.4-17.6h0.1c8.7,0.1,19.6,7.8,20.8,8.7l-4.5,6.2
		c-2.7-2-11-7.2-16.4-7.2h0C496.4,206.4,491.6,213.8,489.4,219.2z"/>
	<path class="st16" d="M474.6,206.4l-3.5-6.9c5.2-2.6,12.2-8.1,11.9-11.4c-0.5-5.3-6.4-13.1-8.6-15.7l5.8-5.1
		c1,1.1,9.6,11.3,10.5,19.9C491.7,197.2,477.5,204.9,474.6,206.4L474.6,206.4z"/>
</g>
</svg>
